<svg width="85" height="85" viewBox="0 0 85 85" fill="none" xmlns="http://www.w3.org/2000/svg">
<rect width="85" height="85" rx="10" fill="current"/>
<g clip-path="url(#clip0)">
<path d="M45.0266 35.0049H48.6256C49.0571 35.0049 49.4069 34.6551 49.4069 34.2236V30.6187C49.4069 30.1872 49.0571 29.8374 48.6256 29.8374H45.0266C44.5952 29.8374 44.2454 30.1872 44.2454 30.6187V34.2236C44.2454 34.6551 44.5952 35.0049 45.0266 35.0049ZM45.8079 31.4H47.8444V33.4425H45.8079V31.4Z" fill="black"/>
<path d="M37.9384 35.0049H41.5374C41.9689 35.0049 42.3187 34.6551 42.3187 34.2236V30.6187C42.3187 30.1872 41.9689 29.8374 41.5374 29.8374H37.9384C37.507 29.8374 37.1572 30.1872 37.1572 30.6187V34.2236C37.1572 34.6551 37.507 35.0049 37.9384 35.0049ZM38.7197 31.4H40.7562V33.4425H38.7197V31.4Z" fill="black"/>
<path d="M45.0266 42.9409H48.6256C49.0571 42.9409 49.4069 42.5911 49.4069 42.1596V38.5547C49.4069 38.1232 49.0571 37.7734 48.6256 37.7734H45.0266C44.5952 37.7734 44.2454 38.1232 44.2454 38.5547V42.1596C44.2454 42.591 44.5952 42.9409 45.0266 42.9409ZM45.8079 39.3359H47.8444V41.3783H45.8079V39.3359Z" fill="black"/>
<path d="M37.9384 42.9409H41.5374C41.9689 42.9409 42.3187 42.5911 42.3187 42.1596V38.5547C42.3187 38.1232 41.9689 37.7734 41.5374 37.7734H37.9384C37.507 37.7734 37.1572 38.1232 37.1572 38.5547V42.1596C37.1572 42.591 37.507 42.9409 37.9384 42.9409ZM38.7197 39.3359H40.7562V41.3783H38.7197V39.3359Z" fill="black"/>
<path d="M45.0266 50.8767H48.6256C49.0571 50.8767 49.4069 50.527 49.4069 50.0955V46.4905C49.4069 46.059 49.0571 45.7092 48.6256 45.7092H45.0266C44.5952 45.7092 44.2454 46.059 44.2454 46.4905V50.0955C44.2454 50.527 44.5952 50.8767 45.0266 50.8767ZM45.8079 47.2718H47.8444V49.3143H45.8079V47.2718Z" fill="black"/>
<path d="M41.5374 50.8767C41.9689 50.8767 42.3187 50.527 42.3187 50.0955V46.4905C42.3187 46.059 41.9689 45.7092 41.5374 45.7092H37.9384C37.507 45.7092 37.1572 46.059 37.1572 46.4905V50.0955C37.1572 50.527 37.507 50.8767 37.9384 50.8767H41.5374ZM38.7197 47.2718H40.7562V49.3143H38.7197V47.2718Z" fill="black"/>
<path d="M59.2461 60.4375H58.5197V36.8397C58.5197 36.4082 58.1699 36.0584 57.7384 36.0584H52.6484V26.3716C52.6484 25.9402 52.2987 25.5904 51.8672 25.5904H50.2027V22.7812C50.2027 22.3498 49.8529 22 49.4214 22H37.1427C36.7112 22 36.3614 22.3498 36.3614 22.7812V25.5904H34.697C34.2655 25.5904 33.9157 25.9402 33.9157 26.3716V41.4077H29.6291C29.1977 41.4077 28.8479 41.7574 28.8479 42.1889V60.4375H26.7539C26.3224 60.4375 25.9727 60.7873 25.9727 61.2188C25.9727 61.6502 26.3224 62 26.7539 62H59.2461C59.6776 62 60.0274 61.6502 60.0274 61.2188C60.0274 60.7873 59.6776 60.4375 59.2461 60.4375ZM37.9239 23.5625H48.6401V25.5904H37.9239V23.5625ZM30.4104 42.9702H33.9157V60.4375H30.4104V42.9702ZM35.4782 27.1529H51.0859V60.4375H47.1969V55.283C47.1969 54.8515 46.8471 54.5017 46.4156 54.5017H40.1484C39.717 54.5017 39.3672 54.8515 39.3672 55.283V60.4375H35.4782V27.1529ZM40.9298 60.4375V56.0642H45.6345V60.4375H40.9298ZM52.6484 60.4375V37.6209H56.9572V60.4375H52.6484Z" fill="black"/>
</g>
<defs>
<clipPath id="clip0">
<rect width="40" height="40" fill="white" transform="translate(23 22)"/>
</clipPath>
</defs>
</svg>
