<svg width="154" height="39" viewBox="0 0 154 39" fill="none" xmlns="http://www.w3.org/2000/svg">
<path d="M9.624 12.2C11.7573 12.2 13.528 13.0107 14.936 14.632C16.3653 16.2533 17.08 18.2373 17.08 20.584V26.216C17.08 26.7067 17.0587 27.08 17.016 27.336C16.9947 27.5707 16.8987 27.848 16.728 28.168C16.4507 28.7227 15.6293 29 14.264 29C12.9627 29 12.152 28.7227 11.832 28.168C11.6613 27.848 11.5547 27.56 11.512 27.304C11.4907 27.048 11.48 26.664 11.48 26.152V20.552C11.48 19.6773 11.2347 18.9947 10.744 18.504C10.2533 18.0133 9.624 17.768 8.856 17.768C8.10933 17.768 7.448 18.0027 6.872 18.472C6.296 18.92 5.96533 19.432 5.88 20.008V26.216C5.88 26.7067 5.85867 27.08 5.816 27.336C5.79467 27.5707 5.69867 27.848 5.528 28.168C5.25067 28.7227 4.42933 29 3.064 29C1.72 29 0.898667 28.712 0.6 28.136C0.450667 27.816 0.354667 27.5387 0.312 27.304C0.290667 27.0693 0.28 26.696 0.28 26.184V7.048C0.28 6.55733 0.290667 6.19467 0.312 5.96C0.354667 5.704 0.450667 5.42666 0.6 5.128C0.898667 4.552 1.73067 4.264 3.096 4.264C4.44 4.264 5.25067 4.552 5.528 5.128C5.69867 5.448 5.79467 5.736 5.816 5.992C5.85867 6.22667 5.88 6.58933 5.88 7.08V14.152C6.94667 12.8507 8.19467 12.2 9.624 12.2ZM30.599 13.928C30.727 12.7333 31.5697 12.136 33.127 12.136C33.959 12.136 34.5777 12.2 34.983 12.328C35.3883 12.456 35.6657 12.68 35.815 13C35.9857 13.32 36.0817 13.608 36.103 13.864C36.1457 14.0987 36.167 14.4613 36.167 14.952V26.152C36.167 26.6427 36.1457 27.016 36.103 27.272C36.0817 27.5067 35.9963 27.784 35.847 28.104C35.5483 28.6587 34.8123 28.936 33.639 28.936C32.487 28.936 31.7083 28.7973 31.303 28.52C30.919 28.2213 30.695 27.7947 30.631 27.24C29.8417 28.3707 28.519 28.936 26.663 28.936C24.8283 28.936 23.1217 28.0933 21.543 26.408C19.9643 24.7227 19.175 22.7707 19.175 20.552C19.175 18.312 19.9643 16.36 21.543 14.696C23.143 13.0107 24.8923 12.168 26.791 12.168C27.5163 12.168 28.1777 12.296 28.775 12.552C29.3723 12.808 29.7883 13.0533 30.023 13.288C30.2577 13.5013 30.4497 13.7147 30.599 13.928ZM24.775 20.584C24.775 21.288 25.0523 21.928 25.607 22.504C26.1617 23.0587 26.8337 23.336 27.623 23.336C28.4123 23.336 29.063 23.048 29.575 22.472C30.1083 21.896 30.375 21.2667 30.375 20.584C30.375 19.88 30.119 19.2293 29.607 18.632C29.1163 18.0347 28.4443 17.736 27.591 17.736C26.759 17.736 26.0763 18.0347 25.543 18.632C25.031 19.2293 24.775 19.88 24.775 20.584ZM48.5095 17.8L46.4295 17.672V22.088C46.4295 22.664 46.5148 23.08 46.6855 23.336C46.8775 23.592 47.2188 23.72 47.7095 23.72C48.2215 23.72 48.6055 23.7413 48.8615 23.784C49.1388 23.8053 49.4268 23.9013 49.7255 24.072C50.2162 24.3493 50.4615 25.064 50.4615 26.216C50.4615 27.56 50.1628 28.3813 49.5655 28.68C49.2455 28.8293 48.9575 28.9253 48.7015 28.968C48.4668 28.9893 48.1148 29 47.6455 29C45.4268 29 43.7415 28.4987 42.5895 27.496C41.4375 26.4933 40.8615 24.7973 40.8615 22.408V17.672C40.4562 17.736 40.0188 17.768 39.5495 17.768C39.0802 17.768 38.6855 17.5867 38.3655 17.224C38.0668 16.8613 37.9175 16.2427 37.9175 15.368C37.9175 14.4933 37.9708 13.864 38.0775 13.48C38.1842 13.0747 38.3335 12.7867 38.5255 12.616C38.8668 12.3387 39.2935 12.2 39.8055 12.2L40.8615 12.328V9.032C40.8615 8.54133 40.8722 8.17867 40.8935 7.944C40.9362 7.70933 41.0428 7.45333 41.2135 7.176C41.4908 6.64267 42.3122 6.376 43.6775 6.376C45.1282 6.376 45.9922 6.77067 46.2695 7.56C46.3762 7.90133 46.4295 8.44533 46.4295 9.192V12.328C47.3682 12.2427 48.0722 12.2 48.5415 12.2C49.0322 12.2 49.3948 12.2213 49.6295 12.264C49.8855 12.2853 50.1735 12.3813 50.4935 12.552C51.0482 12.8293 51.3255 13.6507 51.3255 15.016C51.3255 16.36 51.0375 17.1813 50.4615 17.48C50.1415 17.6293 49.8535 17.7253 49.5975 17.768C49.3628 17.7893 49.0002 17.8 48.5095 17.8ZM57.7475 20.584C57.7475 21.48 58.0462 22.184 58.6435 22.696C59.2408 23.1867 59.8702 23.432 60.5315 23.432C61.2142 23.432 61.8435 23.24 62.4195 22.856C63.0168 22.4507 63.4968 22.248 63.8595 22.248C64.4995 22.248 65.2782 22.8133 66.1955 23.944C66.6862 24.5627 66.9315 25.1173 66.9315 25.608C66.9315 26.4187 66.3448 27.176 65.1715 27.88C63.9555 28.7333 62.4622 29.16 60.6915 29.16C58.7075 29.16 56.7982 28.4453 54.9635 27.016C54.0888 26.3333 53.3742 25.4267 52.8195 24.296C52.2648 23.144 51.9875 21.8853 51.9875 20.52C51.9875 19.1333 52.2648 17.8853 52.8195 16.776C53.3742 15.6453 54.0888 14.7387 54.9635 14.056C56.7342 12.648 58.6222 11.944 60.6275 11.944C61.4382 11.944 62.2275 12.0613 62.9955 12.296C63.7635 12.5093 64.3288 12.7227 64.6915 12.936L65.2035 13.256C65.5875 13.512 65.8862 13.7147 66.0995 13.864C66.6542 14.2907 66.9315 14.7813 66.9315 15.336C66.9315 15.8693 66.7075 16.4773 66.2595 17.16C65.4915 18.3333 64.7555 18.92 64.0515 18.92C63.6462 18.92 63.0702 18.6853 62.3235 18.216C61.9395 17.8533 61.3848 17.672 60.6595 17.672C59.9555 17.672 59.2942 17.928 58.6755 18.44C58.0568 18.952 57.7475 19.6667 57.7475 20.584ZM78.1553 12.2C80.2886 12.2 82.0593 13.0107 83.4673 14.632C84.8966 16.2533 85.6112 18.2373 85.6112 20.584V26.216C85.6112 26.7067 85.5899 27.08 85.5473 27.336C85.5259 27.5707 85.4299 27.848 85.2593 28.168C84.9819 28.7227 84.1606 29 82.7953 29C81.4939 29 80.6833 28.7227 80.3633 28.168C80.1926 27.848 80.0859 27.56 80.0433 27.304C80.0219 27.048 80.0113 26.664 80.0113 26.152V20.552C80.0113 19.6773 79.7659 18.9947 79.2753 18.504C78.7846 18.0133 78.1553 17.768 77.3873 17.768C76.6406 17.768 75.9793 18.0027 75.4033 18.472C74.8273 18.92 74.4966 19.432 74.4113 20.008V26.216C74.4113 26.7067 74.3899 27.08 74.3473 27.336C74.3259 27.5707 74.2299 27.848 74.0593 28.168C73.7819 28.7227 72.9606 29 71.5953 29C70.2513 29 69.4299 28.712 69.1313 28.136C68.9819 27.816 68.8859 27.5387 68.8433 27.304C68.8219 27.0693 68.8113 26.696 68.8113 26.184V7.048C68.8113 6.55733 68.8219 6.19467 68.8433 5.96C68.8859 5.704 68.9819 5.42666 69.1313 5.128C69.4299 4.552 70.2619 4.264 71.6273 4.264C72.9713 4.264 73.7819 4.552 74.0593 5.128C74.2299 5.448 74.3259 5.736 74.3473 5.992C74.3899 6.22667 74.4113 6.58933 74.4113 7.08V14.152C75.4779 12.8507 76.7259 12.2 78.1553 12.2ZM88.1863 14.952C88.1863 14.4613 88.1969 14.0987 88.2183 13.864C88.2609 13.608 88.3569 13.32 88.5063 13C88.8049 12.4453 89.6369 12.168 91.0023 12.168C92.0263 12.168 92.7516 12.3493 93.1783 12.712C93.5409 13.0107 93.7329 13.4693 93.7543 14.088C93.7756 14.3013 93.7863 14.6107 93.7863 15.016V26.216C93.7863 26.7067 93.7649 27.08 93.7223 27.336C93.7009 27.5707 93.6049 27.848 93.4343 28.168C93.1569 28.7227 92.3356 29 90.9703 29C89.6263 29 88.8049 28.712 88.5063 28.136C88.3569 27.816 88.2609 27.5387 88.2183 27.304C88.1969 27.0693 88.1863 26.696 88.1863 26.184V14.952ZM93.4343 9.032C93.2849 9.33067 93.0076 9.544 92.6023 9.672C92.1969 9.8 91.6529 9.864 90.9703 9.864C90.3089 9.864 89.7756 9.8 89.3703 9.672C88.9649 9.544 88.6769 9.32 88.5063 9C88.3569 8.68 88.2609 8.40267 88.2183 8.168C88.1969 7.912 88.1863 7.53867 88.1863 7.048C88.1863 6.55733 88.1969 6.19467 88.2183 5.96C88.2609 5.704 88.3569 5.42666 88.5063 5.128C88.8049 4.552 89.6369 4.264 91.0023 4.264C92.3463 4.264 93.1569 4.552 93.4343 5.128C93.6049 5.448 93.7009 5.736 93.7223 5.992C93.7649 6.22667 93.7863 6.58933 93.7863 7.08C93.7863 7.57066 93.7649 7.944 93.7223 8.2C93.7009 8.43467 93.6049 8.712 93.4343 9.032ZM95.8625 20.584C95.8625 18.024 96.7585 15.912 98.5505 14.248C100.343 12.584 102.391 11.752 104.695 11.752C106.999 11.752 109.036 12.584 110.807 14.248C112.577 15.8907 113.463 17.992 113.463 20.552C113.463 22.3227 113.004 23.9013 112.087 25.288C111.169 26.6533 110.049 27.6667 108.727 28.328C107.425 28.968 106.071 29.288 104.663 29.288C103.255 29.288 101.889 28.9467 100.567 28.264C99.2438 27.56 98.1238 26.536 97.2065 25.192C96.3105 23.8267 95.8625 22.2907 95.8625 20.584ZM102.551 22.888C103.233 23.4 103.927 23.656 104.631 23.656C105.335 23.656 106.039 23.3893 106.743 22.856C107.447 22.3227 107.799 21.5333 107.799 20.488C107.799 19.4427 107.468 18.664 106.807 18.152C106.145 17.64 105.431 17.384 104.663 17.384C103.895 17.384 103.18 17.6507 102.519 18.184C101.857 18.7173 101.527 19.5067 101.527 20.552C101.527 21.576 101.868 22.3547 102.551 22.888Z" fill="#2B2B2B"/>
<g filter="url(#filter0_d)">
<path d="M140.039 2.356C135.32 1.93263 127.878 8.51697 126.348 18.4076C124.818 28.2925 131.023 33.5231 136.168 34.1179C141.622 34.7482 148.964 32.2178 149.81 21.2826C150.661 10.348 144.638 2.7655 140.039 2.356Z" fill="#F7EEED"/>
<path d="M149.811 21.2768C150.531 11.9905 146.3 5.12698 142.191 3.01762C143.077 3.87032 147.257 8.34338 147.715 16.8877C148.196 25.8826 144.055 33.4533 133.274 33.1725C133.164 33.1714 133.06 33.1653 132.956 33.1649C134.021 33.6718 135.118 33.9906 136.169 34.1121C141.622 34.7482 148.959 32.2114 149.811 21.2768Z" fill="#F0E4D6"/>
<path opacity="0.6" d="M138.526 4.70534C136.715 4.0539 130.773 10.1718 130.59 14.4022C130.407 18.6326 134.312 17.6765 136.184 14.2579C138.055 10.845 140.56 5.44058 138.526 4.70534Z" fill="white"/>
<path d="M139.971 2.69716C140.052 3.14859 139.617 3.46467 139.789 3.93241C139.939 4.33944 140.283 4.77466 140.617 5.04585C140.939 5.30998 141.312 5.44031 141.728 5.39533C141.997 5.36829 142.039 5.30911 142.23 5.50574C142.396 5.6761 142.348 5.68804 142.407 5.88097C142.445 6.00171 142.503 6.10148 142.605 6.17716C142.743 6.28042 142.921 6.29515 143.086 6.32003C143.382 6.36009 143.619 6.41652 143.857 6.60694C144.101 6.80377 144.318 7.0324 144.549 7.23939C144.711 7.39188 145.127 7.64935 145.213 7.85705C145.413 8.33383 144.787 8.59303 144.764 9.0498C144.746 9.46065 145.042 9.8089 145.331 10.0576C145.39 10.105 145.415 9.98581 145.384 9.94741C145.11 9.61328 144.723 9.20788 145.03 8.74327C145.127 8.60327 145.283 8.50497 145.37 8.35217C145.5 8.1287 145.486 7.90022 145.337 7.68525C145.034 7.24891 144.525 6.88772 144.138 6.52891C143.808 6.22901 143.539 6.09909 143.101 6.03678C142.987 6.01784 142.843 6.01856 142.74 5.95436C142.556 5.84007 142.571 5.66147 142.522 5.48134C142.495 5.36766 142.471 5.27185 142.376 5.19109C142.094 4.92584 141.578 5.13952 141.233 5.01823C140.744 4.84534 140.31 4.33577 140.072 3.88947C139.844 3.45598 140.166 3.06289 140.025 2.62782C140.014 2.57417 139.965 2.64992 139.971 2.69716Z" fill="#8C8B7E"/>
<path d="M141.056 5.24778C140.863 5.67327 140.634 6.0597 140.348 6.43378C140.239 6.57247 140.071 6.87873 139.907 6.94701C139.688 7.04379 139.531 6.79307 139.353 6.7375C139.141 6.6665 139.012 6.78532 138.888 6.95138C138.6 7.34843 138.376 7.78784 138.109 8.19901C138.067 8.26393 138.058 8.34429 138.108 8.41403C138.443 8.87155 138.766 9.33922 139.095 9.80182C139.468 10.3278 138.891 10.3657 138.725 10.7594C138.701 10.8148 138.688 10.9296 138.76 10.9612C139.517 11.3163 138.386 11.7439 138.169 11.9224C137.978 12.0805 137.895 12.2978 137.954 12.5431C137.997 12.7225 138.117 12.8819 138.216 13.0328C138.37 13.2542 138.612 13.4102 138.761 13.6252C138.955 13.9092 138.781 14.0578 138.671 14.3127C138.569 14.5509 138.563 14.8061 138.586 15.0589C138.621 15.0048 138.65 14.95 138.685 14.8959C138.313 14.8122 138.008 15.056 137.833 15.3674C137.537 15.8799 137.69 16.5141 137.585 17.0777C137.572 17.1459 137.645 17.2183 137.673 17.1227C137.851 16.5268 137.641 14.9729 138.665 15.1728C138.745 15.1877 138.771 15.057 138.765 15.0098C138.731 14.7034 138.784 14.442 138.919 14.1669C138.956 14.0955 139.01 14.0319 139.031 13.9529C139.061 13.8401 139.049 13.7456 138.99 13.6458C138.745 13.2103 137.595 12.4957 138.456 12.0428C138.715 11.9041 139.029 11.7949 139.149 11.5006C139.277 11.1897 139.13 10.8586 138.833 10.7196C138.843 10.7848 138.858 10.8563 138.868 10.9214C139.028 10.5385 139.611 10.5012 139.451 9.97101C139.371 9.71164 139.138 9.47529 138.989 9.26033C138.734 8.90521 138.474 8.55518 138.219 8.20007C138.217 8.26961 138.22 8.34555 138.218 8.41509C138.35 8.21525 138.488 8.02181 138.621 7.82196C138.739 7.6495 138.86 7.35517 139.02 7.21669C139.379 6.91499 139.511 7.43042 139.875 7.32718C140.15 7.24848 140.405 6.79515 140.552 6.57367C140.803 6.20136 141.005 5.79441 141.163 5.37645C141.203 5.28216 141.118 5.1153 141.056 5.24778Z" fill="#8C8B7E"/>
<path d="M135.2 11.2245C135.244 10.9969 135.298 10.7763 135.364 10.5513C135.401 10.4277 135.448 10.1714 135.602 10.1369C135.661 10.1262 135.765 10.1847 135.827 10.192C136.096 10.223 136.289 10.0476 136.375 9.80166C136.419 9.67294 136.423 9.53385 136.41 9.39853C136.385 9.06408 136.48 8.93556 136.729 8.73169C136.927 8.57421 137.111 8.38031 137.357 8.30405C137.633 8.21387 137.909 8.32724 138.161 8.45518C138.265 8.5079 138.289 8.30126 138.237 8.243C138.074 8.05541 137.713 7.97298 137.473 7.99758C137.151 8.03016 136.905 8.30422 136.663 8.49727C136.498 8.62935 136.269 8.75991 136.21 8.97407C136.17 9.11494 136.225 9.2434 136.232 9.38381C136.261 10.0443 135.907 9.9045 135.509 9.89339C135.468 9.89451 135.441 9.93205 135.437 9.96649C135.349 10.3809 135.205 10.7772 135.145 11.2007C135.133 11.2517 135.188 11.2755 135.2 11.2245Z" fill="#8C8B7E"/>
<path d="M146.358 7.76247C146.199 7.52897 146.03 7.2884 145.787 7.13815C145.614 7.03093 145.432 7.00406 145.301 6.83192C145.191 6.68537 145.142 6.50525 145.037 6.35936C144.651 5.83785 144.157 5.95526 143.616 6.18926C143.549 6.21644 143.535 6.38931 143.63 6.37117C143.93 6.32447 144.347 6.06447 144.643 6.20917C144.928 6.34682 145.039 6.64459 145.195 6.90106C145.303 7.07056 145.403 7.10541 145.585 7.18459C145.899 7.3198 146.101 7.57581 146.308 7.84395C146.343 7.88876 146.383 7.79447 146.358 7.76247Z" fill="#8C8B7E"/>
<path d="M139.54 16.2277C139.546 15.9725 139.498 15.6354 139.305 15.4445C139.166 15.3004 138.954 15.334 138.901 15.5431C138.941 15.542 138.977 15.5345 139.018 15.5334C138.964 15.3468 138.886 15.0645 138.707 14.9566C138.653 14.9271 138.63 15.0291 138.644 15.0597C138.714 15.254 138.84 15.414 138.904 15.6191C138.924 15.6912 139.001 15.6769 139.02 15.6093C139.058 15.5846 139.089 15.5649 139.127 15.5402C139.196 15.5423 139.245 15.5712 139.273 15.6269C139.314 15.6723 139.337 15.7273 139.365 15.7829C139.429 15.9299 139.458 16.0844 139.474 16.2434C139.48 16.2964 139.54 16.28 139.54 16.2277Z" fill="#8C8B7E"/>
<path d="M135.185 11.2518C135.189 10.8626 135.304 10.5153 135.527 10.192C135.582 10.1112 135.513 9.90544 135.436 10.0187C135.186 10.3853 135.08 10.8092 135.116 11.2554C135.12 11.3198 135.191 11.3048 135.185 11.2518Z" fill="#8C8B7E"/>
</g>
<defs>
<filter id="filter0_d" x="122.686" y="-1" width="33.1501" height="40.5086" filterUnits="userSpaceOnUse" color-interpolation-filters="sRGB">
<feFlood flood-opacity="0" result="BackgroundImageFix"/>
<feColorMatrix in="SourceAlpha" type="matrix" values="0 0 0 0 0 0 0 0 0 0 0 0 0 0 0 0 0 0 127 0"/>
<feOffset dx="1" dy="1"/>
<feGaussianBlur stdDeviation="1.5"/>
<feColorMatrix type="matrix" values="0 0 0 0 0 0 0 0 0 0 0 0 0 0 0 0 0 0 0.5 0"/>
<feBlend mode="normal" in2="BackgroundImageFix" result="effect1_dropShadow"/>
<feBlend mode="normal" in="SourceGraphic" in2="effect1_dropShadow" result="shape"/>
</filter>
</defs>
</svg>
