<svg width="85" height="85" viewBox="0 0 85 85" fill="none" xmlns="http://www.w3.org/2000/svg">
<rect width="85" height="85" rx="10" fill="current"/>
<g clip-path="url(#clip0)">
<path d="M59.4306 38.6269C57.9299 35.6011 55.472 33.4974 52.5094 32.7033C52.4306 32.6822 52.3512 32.6632 52.272 32.6441C52.804 32.3038 53.3034 31.9049 53.7589 31.4495C55.9982 29.2101 56.8812 25.9163 56.0632 22.8533C55.9911 22.5831 55.7802 22.3722 55.51 22.3C52.4471 21.482 49.1532 22.3651 46.9138 24.6043C46.0616 25.4566 45.4064 26.4618 44.9661 27.5488C44.5825 26.3479 44.0969 25.1755 43.5093 24.0364C43.1906 23.4187 42.6132 23.0051 41.9251 22.9017C41.2452 22.7993 40.5528 23.0318 40.0724 23.5229L38.4438 25.1872C37.6671 25.9811 37.6283 27.2558 38.3555 28.0894C39.6861 29.6144 40.501 31.5108 40.7011 33.5108C40.102 33.2073 39.4841 32.9605 38.8561 32.7766C37.0926 32.2604 35.2368 32.2351 33.4895 32.7034C32.1918 33.0512 30.9832 33.6539 29.8971 34.4945C29.5559 34.7586 29.4934 35.2493 29.7575 35.5906C30.0216 35.9319 30.5123 35.9943 30.8536 35.7302C31.7748 35.0172 32.7977 34.5067 33.894 34.2128C36.8614 33.4174 39.9845 34.3064 42.4624 36.6519C42.7637 36.9372 43.2354 36.9371 43.5366 36.6519C46.0145 34.3063 49.1375 33.4174 52.105 34.2128C57.3635 35.6223 60.4371 41.9061 58.9565 48.2205C57.9405 52.5539 54.7375 57.0727 51.1674 59.2095C49.3047 60.3243 47.4836 60.6893 45.9009 60.265C45.4874 60.1542 45.081 59.9873 44.693 59.7689C43.6485 59.1811 42.3507 59.1811 41.3061 59.7689C40.918 59.9873 40.5117 60.1542 40.0982 60.265C38.5154 60.6893 36.6944 60.3243 34.8317 59.2095C31.2616 57.0727 28.0585 52.5539 27.0424 48.2205C26.4815 45.828 26.554 43.372 27.252 41.1182C27.3796 40.7059 27.149 40.2683 26.7368 40.1407C26.3246 40.013 25.8869 40.2437 25.7593 40.6559C24.9791 43.1751 24.8966 45.9143 25.5211 48.5773C26.6261 53.2901 30.1247 58.2136 34.0293 60.5504C35.6349 61.5113 37.2426 62.0003 38.7628 62.0002C39.3579 62.0002 39.9397 61.9252 40.5027 61.7744C41.0423 61.6298 41.5705 61.4132 42.0724 61.1308C42.6442 60.809 43.3548 60.8089 43.9266 61.1308C44.4285 61.4133 44.9567 61.6298 45.4964 61.7744C47.4972 62.3106 49.7358 61.8875 51.9699 60.5503C55.8744 58.2135 59.3731 53.29 60.4781 48.5772C61.2827 45.1449 60.9107 41.6112 59.4306 38.6269ZM48.0187 25.7092C49.7559 23.9718 52.2639 23.2248 54.6582 23.7049C55.1383 26.0995 54.3912 28.6071 52.6539 30.3445C51.152 31.8464 49.0746 32.6074 46.992 32.4761L49.5707 29.8974C49.8758 29.5923 49.8758 29.0976 49.5707 28.7925C49.2655 28.4874 48.7709 28.4874 48.4657 28.7925L45.887 31.3712C45.7558 29.2886 46.5168 27.2111 48.0187 25.7092ZM42.9994 35.037C42.7757 34.8484 42.5462 34.669 42.312 34.4985C42.3121 34.4925 42.3127 34.4871 42.3127 34.481C42.3127 31.7513 41.3255 29.1165 39.5329 27.062C39.338 26.8386 39.3502 26.4951 39.5606 26.28L41.1892 24.6156C41.3217 24.4803 41.5052 24.4187 41.6928 24.4469C41.8787 24.4748 42.0345 24.5863 42.1204 24.7527C43.6033 27.6273 44.3921 30.7285 44.4669 33.9751C43.9579 34.2881 43.4667 34.6432 42.9994 35.037Z" fill="black"/>
<path d="M27.9982 38.4838C28.2037 38.4838 28.4053 38.4009 28.5506 38.2548C28.6959 38.1095 28.7795 37.9079 28.7795 37.7025C28.7795 37.497 28.6959 37.2954 28.5506 37.1501C28.4053 37.0047 28.2037 36.9211 27.9982 36.9211C27.7927 36.9211 27.5912 37.0047 27.4458 37.1501C27.3005 37.2954 27.2169 37.497 27.2169 37.7025C27.2169 37.9087 27.3005 38.1095 27.4458 38.2548C27.5912 38.4009 27.7927 38.4838 27.9982 38.4838Z" fill="black"/>
</g>
<defs>
<clipPath id="clip0">
<rect width="40" height="40" fill="white" transform="translate(23 22)"/>
</clipPath>
</defs>
</svg>
