<svg width="85" height="85" viewBox="0 0 85 85" fill="none" xmlns="http://www.w3.org/2000/svg">
<rect width="85" height="85" rx="10" fill="current"/>
<g clip-path="url(#clip0)">
<path d="M62.6176 33.1096L49.9687 28.2872C49.662 28.1703 49.3187 28.3241 49.2018 28.6305C49.0849 28.9372 49.2387 29.2805 49.5454 29.3974L60.7383 33.6647L52.9899 36.6191L43.2451 32.2069C42.946 32.0714 42.5941 32.2041 42.4589 32.5029C42.3234 32.802 42.4562 33.1538 42.7549 33.2893L51.4259 37.2154L43 40.4277L25.2617 33.6647L43 26.9017L47.3713 28.5686C47.6774 28.6851 48.0211 28.5316 48.1382 28.2249C48.2551 27.9185 48.1013 27.5752 47.7946 27.4583L43.2118 25.7109C43.0754 25.659 42.9246 25.6587 42.7882 25.7109L23.3824 33.1096C23.1523 33.1975 23 33.4184 23 33.6647V36.3777C23 36.624 23.1523 36.8449 23.3824 36.9328L29.4423 39.243V41.3017C29.4423 41.6298 29.7081 41.8959 30.0361 41.8959C30.3645 41.8959 30.6303 41.6298 30.6303 41.3017V39.6962L42.7882 44.3315C42.8566 44.3574 42.9283 44.3706 43 44.3706C43.0717 44.3706 43.1434 44.3574 43.2118 44.3315L52.3762 40.8376V50.2394C49.499 51.7497 46.2727 52.559 43 52.559C38.5334 52.559 34.1523 51.0533 30.6303 48.3131V43.6781C30.6303 43.3501 30.3645 43.084 30.0361 43.084C29.7081 43.084 29.4423 43.3501 29.4423 43.6781V48.6009C29.4423 48.7813 29.524 48.9519 29.6647 49.0645C33.434 52.0842 38.17 53.7471 43 53.7471C46.2574 53.7471 49.4716 52.9897 52.3762 51.5709V53.9754C51.4189 54.2369 50.713 55.1137 50.713 56.1528C50.713 57.3973 51.7256 58.4102 52.9701 58.4102C54.2149 58.4102 55.2275 57.3973 55.2275 56.1528C55.2275 55.1137 54.5216 54.2369 53.5643 53.9754V50.9434C54.5326 50.3926 55.4603 49.7658 56.3356 49.0645C56.4763 48.9519 56.5584 48.7813 56.5584 48.6009V39.2427L62.6176 36.9325C62.8477 36.8449 63 36.624 63 36.3774V33.6647C63 33.4184 62.8477 33.1975 62.6176 33.1096ZM54.0394 56.1528C54.0394 56.7421 53.5597 57.2218 52.9701 57.2218C52.3808 57.2218 51.9011 56.7421 51.9011 56.1528C51.9011 55.5632 52.3808 55.0835 52.9701 55.0835C53.5597 55.0835 54.0394 55.5632 54.0394 56.1528ZM24.188 34.5271L42.4058 41.4729V42.914L24.188 35.9682V34.5271ZM43.5942 42.914V41.4729L52.3762 38.1245V39.5659L43.5942 42.914ZM55.37 48.3128C54.7905 48.7639 54.1871 49.1808 53.5643 49.5634V40.3844L55.37 39.6959V48.3128ZM53.5643 39.1127V37.6717L61.812 34.5271V35.9682L53.5643 39.1127Z" fill="black"/>
</g>
<defs>
<clipPath id="clip0">
<rect width="40" height="40" fill="white" transform="translate(23 22)"/>
</clipPath>
</defs>
</svg>
